# xmcd CD database file
#
# Track frame offsets:
#	182
#	10782
#	22295
#	40407
#	55420
#	70645
#	96082
#	121732
#	136970
#	152995
#	171145
#	183707
#	200845
#	218320
#
# Disc length: 3101 seconds
#
# Revision: 0
# Processed by: cddbd v1.5.1PL2 Copyright (c) Steve Scherf et al.
# Submitted via: CDex 1.51
#
DISCID=c50c1b0e
DTITLE=Louis Armstrong - Greatest
DYEAR=1991
DGENRE=Jazz
TTITLE0=What A Wonderful World
TTITLE1=Hello Dolly
TTITLE2=Cabaret
TTITLE3=Mack The Knife
TTITLE4=La Vie En Rose
TTITLE5=Basin Street Blues
TTITLE6=Muskrat Ramble
TTITLE7=On The Sunny Side Of The Street
TTITLE8=C'Est Si Bon
TTITLE9=Ain't Misbehavin'
TTITLE10=When It's Sleepy Time Down South (With Ella Fitzgerald)
TTITLE11=Can't We Be Friends
TTITLE12=A Fine Romance
TTITLE13=I've Got My Love To Keep Me Warm
EXTD=YEAR: 1991
EXTT0=
EXTT1=
EXTT2=
EXTT3=
EXTT4=
EXTT5=
EXTT6=
EXTT7=
EXTT8=
EXTT9=
EXTT10=
EXTT11=
EXTT12=
EXTT13=
PLAYORDER=
